<?xml version="1.0" encoding="utf-8"?>
<!-- Generator: Adobe Illustrator 19.2.1, SVG Export Plug-In . SVG Version: 6.00 Build 0)  -->
<svg version="1.1" id="layer" xmlns="http://www.w3.org/2000/svg" xmlns:xlink="http://www.w3.org/1999/xlink" x="0px" y="0px"
	 viewBox="0 0 652 652" style="enable-background:new 0 0 652 652;" xml:space="preserve">
<style type="text/css">
	.st0{fill:#29702A;}
	.st1{fill:#EE3124;}
</style>
<path class="st0" d="M556.4,383.1v-5.2h-2.1v-1.1h5.3v1.1h-2.1v5.2H556.4z M566.7,383.1v-4.7l-1.8,4.1h-1.2l-1.8-4.1v4.7h-1.2v-6.3
	h1.6l1.9,4.3l1.9-4.3h1.6v6.3H566.7z"/>
<g>
	<path class="st0" d="M127.4,389.9c0,9.1-6.6,15.8-16,15.8c-9.4,0-16-6.7-16-15.8c0-9.1,6.6-15.8,16-15.8
		C120.8,374.2,127.4,380.9,127.4,389.9 M101.8,389.9c0,5.9,4.1,9.9,9.6,9.9c5.6,0,9.6-4,9.6-9.9c0-5.9-4-9.9-9.6-9.9
		C105.8,380,101.8,384,101.8,389.9"/>
	<path class="st0" d="M151.5,391.7v12.8c0,0.3-0.3,0.6-0.6,0.6h-4.4c-0.3,0-0.6-0.3-0.6-0.6v-10.9c0-3-1.5-4.7-4.1-4.7
		c-2.4,0-4.4,1.6-4.4,4.8v10.9c0,0.3-0.3,0.6-0.6,0.6h-4.4c-0.4,0-0.6-0.3-0.6-0.6v-19.8c0-0.4,0.3-0.6,0.6-0.6h4.3
		c0.3,0,0.6,0.3,0.6,0.6v1.9c1.5-2.2,3.8-3,6.2-3C148.1,383.5,151.5,386.9,151.5,391.7"/>
	<path class="st0" d="M161.3,405.1H157c-0.4,0-0.6-0.3-0.6-0.6v-30c0-0.3,0.3-0.6,0.6-0.6h4.4c0.4,0,0.6,0.3,0.6,0.6v30
		C162,404.9,161.7,405.1,161.3,405.1"/>
	<path class="st0" d="M171.8,413.9H167c-0.5,0-0.8-0.5-0.6-0.9l6.8-12.3l-8.6-15.6c-0.2-0.4,0.1-0.9,0.6-0.9h5
		c0.2,0,0.5,0.1,0.6,0.3l5.6,10.5l5.4-10.5c0.1-0.2,0.3-0.3,0.6-0.3h4.8c0.5,0,0.8,0.5,0.6,0.9l-15.4,28.5
		C172.2,413.8,172,413.9,171.8,413.9"/>
	<path class="st0" d="M213.4,389.1h-7v7.7c0,2.6,1.4,3.6,3.1,3.6c1.1,0,2.3-0.5,3.4-1c0.3-0.2,0.7-0.1,0.9,0.3l1.6,3.3
		c0.1,0.3,0,0.6-0.2,0.8c-1.7,1.1-3.8,1.9-6.5,1.9c-5.2,0-7.9-2.9-7.9-8.4v-8.1h-3.4c-0.4,0-0.6-0.3-0.6-0.6v-3.8
		c0-0.4,0.3-0.6,0.6-0.6h3.4v-5.6c0-0.4,0.3-0.6,0.6-0.6h4.4c0.4,0,0.6,0.3,0.6,0.6v5.6h7c0.4,0,0.6,0.3,0.6,0.6v3.8
		C214,388.9,213.7,389.1,213.4,389.1"/>
	<path class="st0" d="M223.7,386.4c1.5-2.1,3.7-2.8,6-2.8c4.8,0,8.2,3.3,8.2,8.2v12.8c0,0.3-0.3,0.6-0.6,0.6h-4.4
		c-0.3,0-0.6-0.3-0.6-0.6v-10.9c0-3-1.5-4.7-4.1-4.7c-2.4,0-4.4,1.6-4.4,4.8v10.9c0,0.3-0.3,0.6-0.6,0.6h-4.4
		c-0.4,0-0.6-0.3-0.6-0.6v-30c0-0.4,0.3-0.6,0.6-0.6h4.4c0.4,0,0.6,0.3,0.6,0.6V386.4z"/>
	<path class="st0" d="M262.2,394.6c0,0.6,0,1.4-0.1,1.9h-14.9c0.6,3,2.7,4.4,5.4,4.4c1.6,0,3.4-0.6,4.9-1.7c0.3-0.2,0.6-0.2,0.9,0.1
		l2.5,2.7c0.2,0.3,0.2,0.7-0.1,0.9c-2.3,1.9-5.2,2.8-8.5,2.8c-6.4,0-10.9-4.4-10.9-11c0-6.6,4.3-11.1,10.6-11.1
		C258.1,383.5,262.2,388,262.2,394.6 M247.2,392.6h9.3c-0.5-2.7-2.1-4.2-4.6-4.2C249.3,388.4,247.7,390,247.2,392.6"/>
	<path class="st0" d="M297.1,392.8h-14.6v11.7c0,0.3-0.3,0.6-0.6,0.6h-4.8c-0.4,0-0.6-0.3-0.6-0.6v-29.1c0-0.4,0.3-0.6,0.6-0.6h21
		c0.4,0,0.6,0.3,0.6,0.6v4.3c0,0.4-0.3,0.6-0.6,0.6h-15.6v6.9h14.6c0.4,0,0.6,0.3,0.6,0.6v4.3C297.7,392.5,297.4,392.8,297.1,392.8"
		/>
	<path class="st0" d="M308.9,377.2c0,2-1.6,3.6-3.6,3.6c-2,0-3.6-1.6-3.6-3.6c0-2,1.6-3.6,3.6-3.6
		C307.3,373.6,308.9,375.2,308.9,377.2 M307.5,405.1h-4.4c-0.4,0-0.6-0.3-0.6-0.6v-19.8c0-0.3,0.3-0.6,0.6-0.6h4.4
		c0.4,0,0.6,0.3,0.6,0.6v19.8C308.1,404.9,307.8,405.1,307.5,405.1"/>
	<path class="st0" d="M332.9,391.7v12.8c0,0.3-0.3,0.6-0.6,0.6h-4.4c-0.4,0-0.6-0.3-0.6-0.6v-10.9c0-3-1.5-4.7-4.1-4.7
		c-2.4,0-4.4,1.6-4.4,4.8v10.9c0,0.3-0.3,0.6-0.6,0.6h-4.4c-0.4,0-0.6-0.3-0.6-0.6v-19.8c0-0.4,0.3-0.6,0.6-0.6h4.3
		c0.3,0,0.6,0.3,0.6,0.6v1.9c1.5-2.2,3.8-3,6.2-3C329.5,383.5,332.9,386.9,332.9,391.7"/>
	<path class="st0" d="M357.2,394.6c0,0.6,0,1.4-0.1,1.9h-14.9c0.6,3,2.7,4.4,5.4,4.4c1.6,0,3.4-0.6,4.9-1.7c0.3-0.2,0.6-0.2,0.8,0.1
		l2.5,2.7c0.2,0.3,0.2,0.7-0.1,0.9c-2.3,1.9-5.2,2.8-8.5,2.8c-6.4,0-10.9-4.4-10.9-11c0-6.6,4.3-11.1,10.6-11.1
		C353,383.5,357.2,388,357.2,394.6 M342.2,392.6h9.3c-0.5-2.7-2.1-4.2-4.6-4.2C344.2,388.4,342.7,390,342.2,392.6"/>
	<path class="st0" d="M376,389.4c-0.1,0.3-0.5,0.5-0.8,0.3c-1.7-0.7-4-1.4-6.1-1.4c-2.1,0-3.2,0.8-3.2,1.9c0,1.2,1.5,1.5,3.4,1.8
		l1.9,0.3c4.6,0.7,7.1,2.7,7.1,6.3c0,4.3-3.6,7.1-9.7,7.1c-2.7,0-6.2-0.5-8.9-2.1c-0.3-0.2-0.4-0.6-0.2-0.8l1.6-3.2
		c0.2-0.3,0.6-0.4,0.9-0.2c1.7,1,3.7,1.7,6.6,1.7c2.6,0,3.9-0.7,3.9-2c0-1-1.1-1.6-3.5-1.9l-1.7-0.2c-4.9-0.7-7.3-2.8-7.3-6.4
		c0-4.3,3.3-6.9,8.9-6.9c3.1,0,5.6,0.5,8.2,1.7c0.3,0.1,0.5,0.5,0.3,0.8L376,389.4z"/>
	<path class="st0" d="M396.5,389.1h-7v7.7c0,2.6,1.4,3.6,3.1,3.6c1.1,0,2.3-0.5,3.4-1c0.3-0.2,0.7-0.1,0.9,0.3l1.6,3.3
		c0.1,0.3,0,0.6-0.2,0.8c-1.7,1.1-3.8,1.9-6.5,1.9c-5.2,0-7.9-2.9-7.9-8.4v-8.1h-3.4c-0.4,0-0.6-0.3-0.6-0.6v-3.8
		c0-0.4,0.3-0.6,0.6-0.6h3.4v-5.6c0-0.4,0.3-0.6,0.6-0.6h4.4c0.4,0,0.6,0.3,0.6,0.6v5.6h7c0.4,0,0.6,0.3,0.6,0.6v3.8
		C397.1,388.9,396.8,389.1,396.5,389.1"/>
	<path class="st0" d="M424.1,374.8c7.1,0,11.5,2.6,11.5,8.4c0,3.1-1.9,5.5-4.4,6.4c2.8,0.9,5.1,3.5,5.1,6.8c0,5.8-4.1,8.7-11.4,8.7
		h-12.5c-0.3,0-0.6-0.3-0.6-0.6v-29.1c0-0.3,0.3-0.6,0.6-0.6H424.1z M417.7,380.1v7.1h6.2c3,0,5.4-0.6,5.4-3.6
		c0-2.9-2.4-3.5-5.4-3.5H417.7z M417.7,392.5v7.3l6.8,0c3.3,0,5.5-0.8,5.5-3.7c0-2.8-2.1-3.6-5.5-3.6H417.7z"/>
	<path class="st0" d="M460.1,394.6c0,0.6,0,1.4-0.1,1.9h-14.9c0.6,3,2.7,4.4,5.4,4.4c1.6,0,3.4-0.6,4.9-1.7c0.3-0.2,0.6-0.2,0.8,0.1
		l2.5,2.7c0.2,0.3,0.2,0.7-0.1,0.9c-2.3,1.9-5.2,2.8-8.5,2.8c-6.4,0-10.9-4.4-10.9-11c0-6.6,4.3-11.1,10.6-11.1
		C455.9,383.5,460.1,388,460.1,394.6 M445.1,392.6h9.3c-0.5-2.7-2.1-4.2-4.6-4.2C447.2,388.4,445.6,390,445.1,392.6"/>
	<path class="st0" d="M478,384.5l-0.6,4.3c-0.1,0.4-0.4,0.6-0.8,0.5c-0.8-0.3-1.8-0.4-2.7-0.4c-2.6,0-4.4,1.6-4.4,4.7v10.8
		c0,0.4-0.3,0.6-0.6,0.6h-4.4c-0.3,0-0.6-0.3-0.6-0.6v-19.8c0-0.3,0.3-0.6,0.6-0.6h4.2c0.3,0,0.6,0.3,0.6,0.6v1.7
		c1.3-2,3.3-2.9,5.9-2.9c0.9,0,1.7,0.1,2.4,0.3C477.9,383.9,478.1,384.2,478,384.5"/>
	<path class="st0" d="M495,384.5l-0.6,4.3c-0.1,0.4-0.4,0.6-0.8,0.5c-0.8-0.3-1.8-0.4-2.7-0.4c-2.6,0-4.4,1.6-4.4,4.7v10.8
		c0,0.4-0.3,0.6-0.6,0.6h-4.4c-0.4,0-0.6-0.3-0.6-0.6v-19.8c0-0.3,0.3-0.6,0.6-0.6h4.2c0.3,0,0.6,0.3,0.6,0.6v1.7
		c1.3-2,3.3-2.9,5.9-2.9c0.9,0,1.7,0.1,2.4,0.3C494.8,383.9,495,384.2,495,384.5"/>
	<path class="st0" d="M504.1,377.2c0,2-1.6,3.6-3.6,3.6c-2,0-3.6-1.6-3.6-3.6c0-2,1.6-3.6,3.6-3.6
		C502.5,373.6,504.1,375.2,504.1,377.2 M502.7,405.1h-4.4c-0.3,0-0.6-0.3-0.6-0.6v-19.8c0-0.3,0.3-0.6,0.6-0.6h4.4
		c0.4,0,0.6,0.3,0.6,0.6v19.8C503.3,404.9,503,405.1,502.7,405.1"/>
	<path class="st0" d="M527.7,394.6c0,0.6,0,1.4-0.1,1.9h-14.9c0.6,3,2.7,4.4,5.4,4.4c1.6,0,3.4-0.6,4.9-1.7c0.3-0.2,0.6-0.2,0.8,0.1
		l2.5,2.7c0.2,0.3,0.2,0.7-0.1,0.9c-2.3,1.9-5.2,2.8-8.5,2.8c-6.4,0-10.9-4.4-10.9-11c0-6.6,4.3-11.1,10.6-11.1
		C523.5,383.5,527.7,388,527.7,394.6 M512.7,392.6h9.3c-0.5-2.7-2.1-4.2-4.6-4.2C514.8,388.4,513.2,390,512.7,392.6"/>
	<path class="st0" d="M546.5,389.4c-0.1,0.3-0.5,0.5-0.8,0.3c-1.7-0.7-4-1.4-6.1-1.4c-2.1,0-3.2,0.8-3.2,1.9c0,1.2,1.5,1.5,3.4,1.8
		l1.9,0.3c4.6,0.7,7.1,2.7,7.1,6.3c0,4.3-3.6,7.1-9.7,7.1c-2.7,0-6.2-0.5-8.9-2.1c-0.3-0.2-0.4-0.6-0.2-0.8l1.6-3.2
		c0.2-0.3,0.6-0.4,0.9-0.2c1.7,1,3.7,1.7,6.6,1.7c2.6,0,3.9-0.7,3.9-2c0-1-1.1-1.6-3.5-1.9l-1.7-0.2c-4.9-0.7-7.3-2.8-7.3-6.4
		c0-4.3,3.3-6.9,8.9-6.9c3.1,0,5.6,0.5,8.2,1.7c0.3,0.1,0.5,0.5,0.3,0.8L546.5,389.4z"/>
	<path class="st1" d="M226.3,282.4c6.9,1.1,12.5-2.4,13.4-9.9c0.9-7.4-4.6-13.9-12.2-13.8c-6.6,0.1-12,5.1-11.9,11
		C215.7,276.4,218.5,281.2,226.3,282.4"/>
	<path class="st0" d="M638.6,282.5c0,2.7-2.3,5-5.1,5c-2.9,0-5.1-2.3-5.1-5c0-2.8,2.2-5,5.1-5C636.3,277.5,638.6,279.7,638.6,282.5
		 M637.4,282.5c0-2.2-1.7-3.9-3.8-3.9c-2.2,0-3.9,1.7-3.9,3.9c0,2.1,1.7,3.9,3.9,3.9C635.7,286.3,637.4,284.6,637.4,282.5
		 M635.7,281.6c0,0.8-0.5,1.3-1.5,1.4l1.5,1.7h-1.2l-1.4-1.7h-0.5v1.7h-1v-4.6h2.1C635,280.1,635.7,280.7,635.7,281.6 M632.7,281
		v1.2h1.1c0.5,0,0.9-0.2,0.9-0.6c0-0.4-0.3-0.6-0.9-0.6H632.7z"/>
	<path class="st0" d="M54.8,339.2c2,1.3,2.8,0.6,4.9,0.8c5.9,0.6,13.8-1.3,20-4.5c5.9-3,13.5-9.3,16.8-14.9c2.9-5,4.3-9.7,5.5-15.4
		c1.6-7.9,2.3-22.7-10.9-34.2c-11.7-10.2-32.9-8.5-45-2c-5,2.7-10.2,5.1-15.1,7.6c-2.7,1.4-6.1,2-8.7,0.6c-0.9-0.4-1.6-1-2.4-1.5
		c-0.3-0.2-1.5-0.5-1.7-0.8c-0.7-0.9,0.4-0.5-0.8-1.6c-0.8-0.7-1.9-0.6-2.2-1.6c-0.1-0.3,0.2-0.9,0.1-1.3c0-0.5-0.4-1-0.4-1.6
		c-0.1-1.7,1.2-2.8,2.2-4c1.4-1.5,2.4-2.5,2.2-4.5c-0.2-2.5,2.8-4.9,4.7-6.2c6.5-4.7,17.4-8.3,25.3-10.6c16.9-4.9,38.2-3.2,54.5,5.8
		c15.5,8.6,23.6,22.3,25.7,40.9c0.7,6.3-0.4,17-2.9,24.2c-5.5,15.5-10.4,22-19.9,30.5c-13.8,12.4-33.4,16.8-47,16.8
		c-6.9,0-17.3-0.4-22.8-3c-4.2-2.1-7.1-4.3-8.3-8.4c-1.4-4.8,0.8-16.1,2.4-21.6c2.2-7.6,12.5-37.2,16.4-49.1
		c1.7-5.2,4.4-8.3,8.9-9.4c2.9-0.7,6.8-0.4,9.8,1.3c4.9,2.9,5.4,8.9,4.6,13.2c-1.1,5.6-5.7,19-7.4,24.9
		C61.5,315.8,54.2,338.8,54.8,339.2"/>
	<path class="st0" d="M160.1,289.7c-0.7-1.9-1.9-5.1-3.5-5.7c-1.5-0.5-3.4-3.8-6.9-3.4c-3.9,0.5-6.8,1.4-6.9,6.4
		c0,3.1,0.6,6.2,0.2,9.3c-1.7,15.1-3.7,22.5-5.6,29.7c-1.9,6.9-6.1,17.5-8.1,24.2c-1.8,5.9,3.1,10.2,9.2,9.7
		c1.7-0.1,3.5-0.6,5.6-0.7c2.5-0.2,4.8-2.1,7-4.3c2.5-2.5,3.5-5.1,4.4-7.6c1.1-3.1,1.6-4.6,2.5-7.7c1.1-3.5,2.9-8.3,3.9-11.8
		c2.6-9.4,5.5-15.5,11.3-20.6c5.8-5,10.6-8.4,16.8-11.9c1.9-1.1,4.3-2.5,5.4-4.5c0.5-0.9,0.5-1,0.7-1.9c0.2-1,0.2-1.5-0.6-2.2
		c-0.6-0.5-1.5-0.6-1.8-1.4c-0.2-0.7,0-0.7-0.5-1.3c-0.5-0.5-0.7-0.4-1.3-0.7c-1.3-0.8-2.8-0.7-4.4-0.8c-3.2-0.4-6.2,0.3-9.2,1.2
		c-5,1.4-13.7,5.3-16,6.5C160.7,291.1,160.5,291,160.1,289.7"/>
	<path class="st0" d="M584.9,274.5c1.9,0.5,4.9,0.3,6.5-0.7c0.7-0.4,1.3-0.9,1.9-1.4c3.8-3.1,6.4-7,8.8-11.2
		c1.2-2.1,1.9-4.6,2.5-6.8c0.5-1.7,0.6-3.9-0.3-5.5c-0.6-1.1-2-1-3-1.4c-1.3-0.5-2.3-1.1-3.7-1.3c-7-0.7-8.8,4.1-8.9,8.5
		c-0.1,2.3-1,5-2.1,8c-0.5,1.3-3.1,5.6-3.6,6.9C582,272.2,582.1,273.8,584.9,274.5"/>
	<path class="st0" d="M234.8,338.9c-0.2-0.2-0.7-0.3-1.1-0.3c-0.5-0.1-0.9,0.3-1.3,0.4c-0.5,0.2-1,0.4-1.5,0.6
		c-1.2,0.4-2.2,0.6-3.4,0.8c-4,0.6-8.6,0-10.7-3.6c-0.9-1.6-1-4.1-0.8-5.9c0.7-6.6,3.8-12.9,6.5-19c1.5-3.3,4.1-9.1,5.6-13.5
		c1.1-3.2,0.9-5.7-2.3-7.3c-4.3-2.2-13.2-0.9-16.4,1.2c-3.6,2.4-6.1,7.2-8.1,11.1c-4.5,9.1-8.7,23.6-9.1,29.4
		c-0.4,5.8-1,12.1,2,17.3c2,3.6,5.3,6.4,9,8.2c5.1,2.4,11.1,2.1,15.7,1c2.7-0.6,5.3-1.5,7.8-2.9c1.1-0.6,2.4-1.3,3.4-2.1
		c0.8-0.7,2-1.5,2.7-2.4c0.8-1,0.4-1.9,1-2.9c0.3-0.5,0.6-0.6,0.5-1.2c-0.1-0.4-0.3-0.6-0.3-1.1c0.1-0.7,0.3-0.9,0.7-1.4
		c0.3-0.4,0.5-1,0.8-1.5c0.2-0.5,0.4-1.1,0.5-1.6c0.1-0.7,0.1-1.5-0.3-2C235.4,339.7,235.2,339.3,234.8,338.9"/>
	<path class="st0" d="M534.9,326.7c0.4-0.8,2.2-2.4,3.5-3.6c15.9-13.6,32.3-30.2,37.6-50.7c1.1-4.1,1.7-7.8,1.1-12
		c-0.1-0.9-0.3-1.8-0.6-2.6c-1-3.3-2.8-6.4-5.6-8.6c-3.9-3.1-9.2-3.8-13.9-2.7c-4.6,1.1-9.1,3.8-12.5,7c-6.5,6.2-12.8,15.9-16.9,24
		c-6,11.9-10.6,24.9-14,38.2c-0.5,2-1.6,10.7-2.3,13.7c-5.4,6-16.8,18.8-28.8,15.3c-7-2-7.4-11.6-6.2-20.6c0,0,2.9-2.2,5.6-4.3
		c13.4-10.6,22-19.8,31-34.1c4.4-7,7.1-14.7,7.5-23c0.2-3.7-0.3-7.5-1.5-10.8c-0.9-2.4-3.4-3.2-3.9-5.6c-0.4-1.8-2.9-2.9-4.7-3.6
		c-6.4-2.5-11.9-0.8-17.7,2.6c-4.8,2.8-9.6,8.3-12.7,12.9c-6.3,9.4-10.7,17-15,27.5c-3.8,9.4-7.2,19.1-9.1,29.2
		c-3.7,0.7-8.3,0.6-11.8-0.5c0.6-5.7,0.3-11.7-1.5-17.9c-1.8-6.3-5.8-12.1-11.8-14.5c-1.6-0.7-3.4-1.1-5.1-0.8
		c-2.2,0.4-3.8,1.8-6,2.3c-1.9,0.4-2.2,1.9-4.2,0.2c-0.8-0.7-3.2-0.5-4.4-0.6c-4.4-0.3-8.1,1.5-11.9,3.7
		c-11.1,6.2-17.6,16.4-23.2,28.8l0-0.2c-3.1,6.9-10.2,15.9-20.4,22.2c-3.9,2.5-9.6,4.3-14.6,4.5c-4.7,0.1-9.3-1.2-11.9-5.2
		c-2.4-3.7-2.9-6.6-2.9-10.9c0-5.4,2.4-13.9,6-19c3.9-5.6,10.8-8.8,19.8-4.9c2.9,1.3,7.1,4.2,10.9,4.1c5.3-0.2,7.6-2.5,7.3-7.2
		c-0.3-5.4-5.1-11.2-8.2-13.1c-4.4-2.8-10.2-4.8-15.6-4.8c-13.5,0-43.3,17.9-43.4,49.5c0,10.7,3.9,21.3,13.9,26.4
		c9.1,4.6,21.6,4.1,31,1c10.6-3.5,20.6-11.4,26.1-20.5c0,0.3,0.1,0.5,0.1,0.5c1.2,6.4,4.3,12,8.7,16.2c8.8,8.2,24.2,7.8,34.6,3.2
		c11.8-5.3,20.1-16.4,23.6-29.8c0,0,1.8,0.4,2.5,0.5c2.8,0.5,7.6,0.4,11,0.2l-0.3,2.6c0,1.9,0,3.8,0.1,5.6
		c0.6,10,5.5,18.6,15.5,22.9c6.7,2.9,16.5,2.4,23.1-0.4c6.6-2.7,14-8.6,18.7-14.4c1.8,7.5,5.7,14.3,14.5,17c6,1.8,16.6,0.7,23.3-4.3
		c0.7-0.5,1.2-1.1,1.8-1.7c1-1,2.4-2.2,2.8-3.4c0.4-1.2-1-2.5-1.1-3.5c-0.1-1,1.1-1.7,0.1-2.6c-1.2-1.1-2.7,0-3.9,0.4
		c-0.8,0.2-1.5,0.6-2.3,0.7c-2.3,0.4-5.1,0.4-7.2-0.5c-4-1.8-5.1-4.7-5.4-7.4c-0.3-2.7-0.4-5.4-0.2-8.1
		C534.1,329.6,534.6,327.2,534.9,326.7 M548.8,280.4c1.9-3.5,5.9-9.5,7.8-11.7c5-5.5,6.8-2.8,6-0.4c-2.1,5.9-10.8,24.1-18.9,33.8
		c-0.9,1.1-4.7,6.4-6.2,7.2C537.7,306.9,544.8,287.8,548.8,280.4 M486.4,289.3c2.3-4.9,8-17.5,13.6-24.6c2.6-3.3,4.2-4.7,6.3-3.6
		c3.4,1.8-8.9,22.1-10.2,24.1c-4.2,6.5-14.7,19.2-16.8,21.3C480.2,303.5,482,298.6,486.4,289.3 M424.7,322.9c-0.5,3.4-2.4,6.3-3,7.6
		c-2.8,6.1-10.1,12.5-17.2,11.6c-4.5-0.6-7.3-4.1-8.3-8.4c-1.2-5,0.7-12.5,2.3-17.1c2.1-5.8,7.9-14.6,15.9-18.2
		c-0.4,9.3,0.9,17.1,8.8,21.1c0.4,0.2,0.9,0.4,1.1,0.8C424.8,320.8,424.8,322.2,424.7,322.9"/>
	<path class="st0" d="M302.6,286.7c-2.2-2.9-5-4.7-7.7-6.2c-4.6-2.5-9.8-3.9-15.1-3.9c-14.1,0-27.5,9.2-27.3,23.8
		c0.2,16.7,15.6,24.1,17.4,34.8c0.6,3.4-0.8,5.3-2.9,6.5c-2.9,1.7-8.3,2.2-14.4-0.5c-2.6-1.1-5.2-2.3-8.6-2.9
		c-0.9-0.2-2-0.1-2.9,0.3c-1.3,0.6-3.3,2.8-2.8,6.3c0.1,0.6,0.4,1.2,0.5,1.8c0.2,0.8,0.4,1,0.5,1.7c0.2,0.8,0.2,0.9,0.7,1.5
		c0.2,0.3,0.5,0.7,0.7,1c0.6,0.8,1.1,1.4,1.8,2.1c1.9,1.7,4.6,3.1,7,4.2c3.2,1.5,7.9,2.3,11.4,2.7c8.7,1.1,19.1-1.2,25.3-7.4
		c5.8-5.8,7.3-12.9,6.2-21.4c-1.1-8.4-6.1-13.7-11-20.4c-4.7-6.5-6.1-9.3-5.9-11.2c0.3-3.3,3.2-4.4,5.7-4.9c2-0.4,4-0.6,6.1-0.6
		c5.4,0.1,7,1.3,8.3,1.1c1.1-0.2,1.5-0.5,2.7-0.2C302.9,296.3,305.2,290.2,302.6,286.7"/>
	<path class="st0" d="M629.6,296.4c-0.3,0.3-0.8,0.6-1,1c-0.1,0.5,0.1,1.2-0.2,1.7c-0.3,0.5-1.1,0.9-1.4,1.3
		c-0.2,0.3-0.7,1.2-0.9,1.4c-0.3,0.3-0.6,0.7-1.4,0.2c-4.6-2.9-10.1-5.8-15.4-5.8c-4.8,0-7.5,2.4-7.7,6.4c-0.2,4.1,3.2,9.8,6.4,14.6
		c5.9,8.7,10.6,14,10.3,24.8c-0.1,3.9-1.7,6.9-3.9,10.1c-7.4,10.9-26,12.4-37.4,8.7c-0.5-0.2-1-0.4-1.5-0.7
		c-7-2.8-11.2-6.7-11.5-10.1c-0.3-3.5,0.5-6.9,3.9-9c8.5-5.1,10.9,6.6,20.9,3.7c3.1-1.1,5.5-2.9,5.7-6.9c0-0.9-0.1-1.8-0.5-2.9
		c-2.8-8-11.3-13.9-13.5-24.6c-2.7-12.9,3.1-23.6,13-29c4.3-2.3,9.2-3.7,14.1-3.5c4.5,0.1,9.2,1.5,13.1,3.8c4.4,2.5,8.6,7.9,9.4,12
		C630.2,294.8,630.2,295.8,629.6,296.4"/>
</g>
</svg>
